<svg width="12" height="12" viewBox="0 0 12 12" fill="none" xmlns="http://www.w3.org/2000/svg">
<path fill-rule="evenodd" clip-rule="evenodd" d="M1.72283 11.704C1.53376 11.8933 1.27721 11.9998 1.00963 12C0.742048 12.0002 0.485352 11.8941 0.29601 11.705C0.106667 11.5159 0.000189356 11.2593 2.52314e-07 10.9917C-0.000188851 10.7241 0.105926 10.4674 0.295 10.278L8.55747 2.01688H2.97521C2.70778 2.01688 2.4513 1.91063 2.2622 1.72152C2.07309 1.5324 1.96686 1.2759 1.96686 1.00844C1.96686 0.740985 2.07309 0.484485 2.2622 0.295366C2.4513 0.106246 2.70778 0 2.97521 0H10.9916C11.2591 0 11.5156 0.106246 11.7047 0.295366C11.8938 0.484485 12 0.740985 12 1.00844V9.02555C12 9.293 11.8938 9.5495 11.7047 9.73862C11.5156 9.92774 11.2591 10.034 10.9916 10.034C10.7242 10.034 10.4677 9.92774 10.2786 9.73862C10.0895 9.5495 9.98329 9.293 9.98329 9.02555V3.44282L1.72283 11.704Z" fill="#EEEEEE" fill-opacity="0.75"/>
</svg>
