<svg width="22" height="22" viewBox="0 0 22 22" fill="none" xmlns="http://www.w3.org/2000/svg">
<path d="M8.22477 2.39691C7.88731 1.55322 7.0702 1 6.16154 1H3.10521C1.94253 1 1 1.94233 1 3.10504C1 12.988 9.01177 21 18.8945 21C20.0572 21 20.9995 20.0574 20.9995 18.8947L21 15.8377C21 14.9291 20.4469 14.1121 19.6033 13.7746L16.674 12.6033C15.9161 12.3001 15.0533 12.4366 14.4263 12.9591L13.6702 13.5897C12.7873 14.3254 11.4882 14.2669 10.6755 13.4542L8.54672 11.3234C7.73403 10.5107 7.67398 9.2126 8.40975 8.32965L9.04016 7.57367C9.56268 6.94662 9.70032 6.08351 9.39719 5.32566L8.22477 2.39691Z" stroke="#EEEEEE" stroke-width="1.5" stroke-linecap="round" stroke-linejoin="round"/>
</svg>
