<?xml version="1.0" encoding="UTF-8"?>
<svg id="Layer_2" data-name="Layer 2" xmlns="http://www.w3.org/2000/svg" viewBox="0 0 227.95 218.74">
  <defs>
    <style>
      .cls-1 {
        fill: #f2f2f2;
      }
    </style>
  </defs>
  <g id="Layer_1-2" data-name="Layer 1">
    <g>
      <path class="cls-1" d="M216.37,86.83c0-.17-.02-.34-.05-.52-.02-.12-.05-.24-.08-.36-.04-.15-.08-.29-.13-.43-.04-.12-.09-.23-.14-.34-.06-.14-.14-.27-.22-.4-.06-.1-.12-.21-.19-.31-.02-.02-.03-.05-.05-.08l-5.54-7.53c-1.47-2-4.29-2.43-6.29-.96s-2.43,4.29-.96,6.29l.27.37h-45.42l9.8-28.75c.8-2.35-.45-4.91-2.81-5.71-2.36-.8-4.91.46-5.71,2.81l-9.11,26.74-32.44-42.36h40.48c2.49,0,4.5-2.01,4.5-4.5s-2.01-4.5-4.5-4.5h-49.54s-.03,0-.04,0h-.01s-.03,0-.04,0h-62.76c-.18,0-.37.01-.55.03-.02,0-.04,0-.06.01-.26.04-.52.1-.77.18-.03,0-.05,0-.08.02-.01,0-.02.01-.04.02-.25.09-.49.2-.71.33-.05.03-.1.06-.15.09-.21.13-.42.28-.61.44-.04.03-.07.07-.1.1-.16.15-.32.32-.46.5-.03.03-.06.07-.08.1-.01.01-.02.03-.03.04L.85,84.42s-.04.07-.06.1c-.03.04-.05.09-.08.13-.12.19-.23.39-.32.59-.03.06-.05.12-.07.19-.08.2-.14.41-.19.62-.02.06-.03.13-.04.19-.05.25-.07.5-.08.75,0,.02,0,.04,0,.07,0,0,0,.01,0,.02,0,.29.03.59.09.88,0,.02.01.04.01.05.05.25.13.49.23.73.03.07.07.14.1.21.08.17.17.34.28.51.05.08.1.15.16.23.05.07.09.14.14.21l103.44,127.17c.11.13.22.26.34.38,0,0,0,0,0,0,.15.14.3.27.47.39.05.03.09.07.14.1.13.09.27.18.42.25.04.02.08.05.13.07.18.09.37.17.56.23.05.02.09.03.14.04.16.05.32.09.48.12.06.01.12.02.18.03.21.03.42.05.63.05h0c.21,0,.42-.02.63-.05.06,0,.12-.02.18-.03.17-.03.33-.07.49-.12.04-.01.09-.02.13-.04.19-.06.38-.14.56-.23.05-.02.09-.05.13-.07.14-.08.28-.16.41-.25.05-.03.1-.06.14-.1.16-.12.32-.25.47-.4,0,0,0,0,0,0,.12-.11.23-.24.33-.36l103.96-127.17s.07-.11.11-.16c.08-.11.16-.22.23-.34.07-.12.13-.24.19-.36.06-.12.12-.24.17-.36.06-.15.1-.29.14-.44.03-.11.07-.22.09-.33.05-.26.07-.52.08-.78,0-.02,0-.05,0-.07,0-.08-.02-.16-.02-.24ZM202.39,91.57l-82.15,100.5,34.26-100.5h47.89ZM43.93,40.45l14.36,42.12H13.33l30.6-42.12ZM145,91.57l-37.07,108.73-37.07-108.73h74.13ZM61.35,91.57l34.2,100.33L13.96,91.57h47.4ZM73.75,82.57l34.42-44.41,34,44.41h-68.42ZM66.14,77.7l-14.46-42.42h47.33l-32.87,42.42Z"/>
      <path class="cls-1" d="M225.23,30.65c-13.89-5.98-17.21-10.08-22.18-27.39-.55-1.93-2.32-3.26-4.33-3.26s-3.77,1.33-4.33,3.26c-4.97,17.32-8.29,21.41-22.18,27.39-1.65.71-2.72,2.34-2.72,4.13s1.07,3.42,2.72,4.13c13.89,5.98,17.21,10.08,22.18,27.4.55,1.93,2.32,3.26,4.33,3.26s3.77-1.33,4.33-3.26c4.97-17.32,8.28-21.41,22.18-27.39,1.65-.71,2.72-2.34,2.72-4.13s-1.07-3.42-2.72-4.13ZM198.73,51.32c-3.42-7.8-7.58-12.46-14.55-16.53,6.97-4.07,11.13-8.73,14.55-16.53,3.42,7.8,7.58,12.46,14.55,16.53-6.97,4.07-11.13,8.73-14.55,16.53Z"/>
    </g>
  </g>
</svg>