<svg width="866" height="61" viewBox="0 0 866 61" fill="none" xmlns="http://www.w3.org/2000/svg">
<mask id="path-1-inside-1_37_23" fill="white">
<path d="M0 0H866V61H0V0Z"/>
</mask>
<g clip-path="url(#paint0_diamond_37_23_clip_path)" data-figma-skip-parse="true"><g transform="matrix(0.38 0 0 0.0206446 433 0)"><rect x="0" y="0" width="1142.11" height="3003.21" fill="url(#paint0_diamond_37_23)" opacity="1" shape-rendering="crispEdges"/><rect x="0" y="0" width="1142.11" height="3003.21" transform="scale(1 -1)" fill="url(#paint0_diamond_37_23)" opacity="1" shape-rendering="crispEdges"/><rect x="0" y="0" width="1142.11" height="3003.21" transform="scale(-1 1)" fill="url(#paint0_diamond_37_23)" opacity="1" shape-rendering="crispEdges"/><rect x="0" y="0" width="1142.11" height="3003.21" transform="scale(-1)" fill="url(#paint0_diamond_37_23)" opacity="1" shape-rendering="crispEdges"/></g></g><path d="M0 0H866V61H0V0Z" data-figma-gradient-fill="{&#34;type&#34;:&#34;GRADIENT_DIAMOND&#34;,&#34;stops&#34;:[{&#34;color&#34;:{&#34;r&#34;:0.0039215688593685627,&#34;g&#34;:0.33725491166114807,&#34;b&#34;:0.99607843160629272,&#34;a&#34;:1.0},&#34;position&#34;:0.0},{&#34;color&#34;:{&#34;r&#34;:0.047058824449777603,&#34;g&#34;:0.047058824449777603,&#34;b&#34;:0.047058824449777603,&#34;a&#34;:0.0},&#34;position&#34;:0.70192307233810425}],&#34;stopsVar&#34;:[{&#34;color&#34;:{&#34;r&#34;:0.0039215688593685627,&#34;g&#34;:0.33725491166114807,&#34;b&#34;:0.99607843160629272,&#34;a&#34;:1.0},&#34;position&#34;:0.0},{&#34;color&#34;:{&#34;r&#34;:0.047058824449777603,&#34;g&#34;:0.047058824449777603,&#34;b&#34;:0.047058824449777603,&#34;a&#34;:0.0},&#34;position&#34;:0.70192307233810425}],&#34;transform&#34;:{&#34;m00&#34;:760.0,&#34;m01&#34;:2.0675274643375263e-13,&#34;m02&#34;:52.999969482421875,&#34;m10&#34;:-1.2894768803076162e-13,&#34;m11&#34;:41.289138793945312,&#34;m12&#34;:-20.644569396972656},&#34;opacity&#34;:1.0,&#34;blendMode&#34;:&#34;NORMAL&#34;,&#34;visible&#34;:true}"/>
<g clip-path="url(#paint1_diamond_37_23_clip_path)" data-figma-skip-parse="true" mask="url(#path-1-inside-1_37_23)"><g transform="matrix(0.433 1.40442e-10 -2.26699e-10 0.0305 433 1.40442e-07)"><rect x="0" y="0" width="1002.31" height="2032.79" fill="url(#paint1_diamond_37_23)" opacity="1" shape-rendering="crispEdges"/><rect x="0" y="0" width="1002.31" height="2032.79" transform="scale(1 -1)" fill="url(#paint1_diamond_37_23)" opacity="1" shape-rendering="crispEdges"/><rect x="0" y="0" width="1002.31" height="2032.79" transform="scale(-1 1)" fill="url(#paint1_diamond_37_23)" opacity="1" shape-rendering="crispEdges"/><rect x="0" y="0" width="1002.31" height="2032.79" transform="scale(-1)" fill="url(#paint1_diamond_37_23)" opacity="1" shape-rendering="crispEdges"/></g></g><path d="M0 0V-1H-1V0H0ZM866 0H867V-1H866V0ZM866 61V62H867V61H866ZM0 61H-1V62H0V61ZM0 0V1H866V0V-1H0V0ZM866 0H865V61H866H867V0H866ZM866 61V60H0V61V62H866V61ZM0 61H1V0H0H-1V61H0Z" data-figma-gradient-fill="{&#34;type&#34;:&#34;GRADIENT_DIAMOND&#34;,&#34;stops&#34;:[{&#34;color&#34;:{&#34;r&#34;:0.93333333730697632,&#34;g&#34;:0.93333333730697632,&#34;b&#34;:0.93333333730697632,&#34;a&#34;:1.0},&#34;position&#34;:0.0},{&#34;color&#34;:{&#34;r&#34;:0.047058824449777603,&#34;g&#34;:0.047058824449777603,&#34;b&#34;:0.047058824449777603,&#34;a&#34;:0.0},&#34;position&#34;:1.0}],&#34;stopsVar&#34;:[{&#34;color&#34;:{&#34;r&#34;:0.93333333730697632,&#34;g&#34;:0.93333333730697632,&#34;b&#34;:0.93333333730697632,&#34;a&#34;:1.0},&#34;position&#34;:0.0},{&#34;color&#34;:{&#34;r&#34;:0.047058824449777603,&#34;g&#34;:0.047058824449777603,&#34;b&#34;:0.047058824449777603,&#34;a&#34;:0.0},&#34;position&#34;:1.0}],&#34;transform&#34;:{&#34;m00&#34;:865.99987792968750,&#34;m01&#34;:-4.5339783127928968e-07,&#34;m02&#34;:2.8151473088655621e-05,&#34;m10&#34;:2.8088368253520457e-07,&#34;m11&#34;:60.999992370605469,&#34;m12&#34;:-30.499996185302734},&#34;opacity&#34;:1.0,&#34;blendMode&#34;:&#34;NORMAL&#34;,&#34;visible&#34;:true}" mask="url(#path-1-inside-1_37_23)"/>
<defs>
<clipPath id="paint0_diamond_37_23_clip_path"><path d="M0 0H866V61H0V0Z"/></clipPath><clipPath id="paint1_diamond_37_23_clip_path"><path d="M0 0V-1H-1V0H0ZM866 0H867V-1H866V0ZM866 61V62H867V61H866ZM0 61H-1V62H0V61ZM0 0V1H866V0V-1H0V0ZM866 0H865V61H866H867V0H866ZM866 61V60H0V61V62H866V61ZM0 61H1V0H0H-1V61H0Z" mask="url(#path-1-inside-1_37_23)"/></clipPath><linearGradient id="paint0_diamond_37_23" x1="0" y1="0" x2="500" y2="500" gradientUnits="userSpaceOnUse">
<stop stop-color="#0156FE"/>
<stop offset="0.701923" stop-color="#0C0C0C" stop-opacity="0"/>
</linearGradient>
<linearGradient id="paint1_diamond_37_23" x1="0" y1="0" x2="500" y2="500" gradientUnits="userSpaceOnUse">
<stop stop-color="#EEEEEE"/>
<stop offset="1" stop-color="#0C0C0C" stop-opacity="0"/>
</linearGradient>
</defs>
</svg>
