<?xml version="1.0" encoding="UTF-8"?>
<svg id="Layer_2" data-name="Layer 2" xmlns="http://www.w3.org/2000/svg" viewBox="0 0 278.31 262.83">
  <defs>
    <style>
      .cls-1 {
        fill: #f2f2f2;
      }
    </style>
  </defs>
  <g id="Layer_1-2" data-name="Layer 1">
    <path class="cls-1" d="M259.29,108.03h-42.18c-2.86,0-5.39,1.72-6.46,4.38-1.06,2.64-.42,5.61,1.64,7.57,4.39,4.18,6.8,9.82,6.8,15.88,0,13.92-10.06,24.41-23.41,24.41s-18.45-7.23-20.99-13.7c.13-.92.22-1.85.22-2.77v-29.93c3.93,1.23,8.11,1.72,12.29,1.41,16.12-1.21,29.02-14.3,30.01-30.45h0c.55-9.09-2.57-17.74-8.79-24.35-6.13-6.52-14.79-10.26-23.73-10.26-3.36,0-6.64.5-9.78,1.49v-31.82c0-10.97-8.92-19.89-19.89-19.89H19.89C8.92,0,0,8.92,0,19.89v123.92c0,10.97,8.92,19.89,19.89,19.89h46.74c2.76,0,5.18-1.67,6.16-4.26.97-2.57.27-5.41-1.81-7.23-5.13-4.47-8.08-10.94-8.08-17.76s2.86-13.11,7.86-17.58c5.06-4.53,11.6-6.61,18.43-5.85,10.92,1.21,19.64,10.02,20.74,20.96.79,7.74-2.1,15.1-7.93,20.2-2.08,1.84-2.79,4.69-1.81,7.28.97,2.57,3.38,4.23,6.13,4.23h10.77v16.09c-3.65-1.1-7.52-1.52-11.36-1.23-15.35,1.15-27.63,13.59-28.56,28.94-.53,8.63,2.43,16.84,8.34,23.12,5.84,6.21,14.07,9.76,22.59,9.76,3.08,0,6.08-.44,8.98-1.32v4.76c0,10.48,8.53,19,19.02,19h123.19c10.49,0,19.02-8.52,19.02-19v-116.79c0-10.48-8.53-19.01-19.02-19.01ZM111.98,154.7c5.23-6.6,7.77-15.07,6.9-23.62-1.52-15.13-13.59-27.33-28.7-29-9.27-1.03-18.53,1.92-25.42,8.09-6.9,6.18-10.86,15.03-10.86,24.28,0,7.42,2.53,14.54,7.06,20.25H19.89c-6,0-10.89-4.89-10.89-10.89V19.89c0-6,4.89-10.89,10.89-10.89h135.13c6,0,10.89,4.89,10.89,10.89v35.35c0,2.22,1.11,4.28,2.97,5.49,1.87,1.22,4.22,1.4,6.27.5,2.99-1.33,6.2-2,9.53-2,6.57,0,12.67,2.64,17.18,7.43,4.5,4.78,6.76,11.04,6.36,17.63-.72,11.68-10.05,21.15-21.7,22.02-3.94.3-7.88-.38-11.41-1.96-2.03-.9-4.36-.71-6.23.51-1.87,1.22-2.98,3.27-2.98,5.5v33.45c0,.78-.08,1.54-.24,2.3-1.08,4.98-5.56,8.6-10.66,8.6h-43.03ZM269.31,243.83c0,5.51-4.5,10-10.02,10h-123.19c-5.52,0-10.02-4.49-10.02-10v-8.43c0-2.18-1.09-4.19-2.91-5.39-1.07-.7-2.29-1.05-3.53-1.05-.89,0-1.78.18-2.63.55-2.82,1.25-5.82,1.88-8.91,1.88-6.14,0-11.83-2.46-16.04-6.93-4.19-4.45-6.29-10.28-5.91-16.41.66-10.88,9.36-19.7,20.25-20.51,3.71-.28,7.28.33,10.63,1.81,2,.89,4.28.71,6.11-.48,1.84-1.19,2.94-3.22,2.94-5.41v-19.76h28.93c.52,0,1.03-.03,1.54-.07.11,0,.23-.02.34-.03.5-.05.99-.11,1.48-.2.08-.01.15-.03.23-.04.44-.08.88-.18,1.31-.29.09-.02.18-.04.27-.07.47-.13.94-.28,1.4-.44.1-.03.19-.07.29-.11.44-.16.87-.34,1.3-.53.04-.02.07-.03.11-.05.45-.21.9-.44,1.33-.68.09-.05.17-.1.26-.15.44-.25.86-.51,1.28-.79.02-.01.03-.02.05-.04.41-.28.81-.58,1.19-.89.06-.04.11-.09.17-.13.4-.32.78-.66,1.15-1.01.03-.03.07-.07.1-.1.37-.36.73-.73,1.07-1.11,0,0,.02-.02.03-.03.04-.04.07-.08.11-.12,4.41,6.33,12.17,12.44,25.66,12.44,18.48,0,32.41-14.36,32.41-33.41,0-6.93-2.24-13.47-6.38-18.83h37.58c5.52,0,10.02,4.49,10.02,10.01v116.79Z"/>
  </g>
</svg>