<svg width="56" height="34" viewBox="0 0 56 34" fill="none" xmlns="http://www.w3.org/2000/svg">
<g clip-path="url(#clip0_136_41)">
<path d="M51.643 15.1372C52.9965 13.5617 53.8414 11.6119 53.8414 9.50103C53.8414 4.25218 49.0951 0 43.7605 0H29.4022V34H45.2689C48.3962 34 50.9175 32.8162 52.8594 30.9055C54.8013 28.9949 56.0044 26.3531 56.0044 23.437C56.0044 20.0684 54.2749 17.0696 51.6474 15.1372H51.643ZM35.6259 6.13236H43.9153C45.9456 6.13236 47.6133 7.70789 47.6133 9.50538C47.6133 11.3029 46.1889 12.8784 44.3002 12.8784H35.6259V6.13236ZM45.2644 27.9286H35.5684V18.9455H44.7513C47.8433 18.9455 49.6746 21.0433 49.6746 23.437C49.6746 25.8308 47.7813 27.9286 45.2644 27.9286ZM14.5396 0H25.9918V6.13236H14.1725C9.78894 6.13236 6.23697 9.62724 6.23697 13.9404V20.0597C6.23697 24.3728 9.78894 27.8676 14.1725 27.8676H19.9185V18.9977H14.3185V12.9045H25.9918V34.0044H14.5396C6.51121 34 0 27.5978 0 19.6941V14.3059C0 6.40655 6.51121 0 14.5396 0Z" fill="url(#paint0_linear_136_41)"/>
</g>
<defs>
<linearGradient id="paint0_linear_136_41" x1="18.5738" y1="34.4309" x2="37.3386" y2="1.39922" gradientUnits="userSpaceOnUse">
<stop stop-color="#EEEEEE"/>
<stop offset="1" stop-color="#0156FE"/>
</linearGradient>
<clipPath id="clip0_136_41">
<rect width="56" height="34" fill="white"/>
</clipPath>
</defs>
</svg>
