<?xml version="1.0" encoding="UTF-8"?>
<svg id="Layer_2" data-name="Layer 2" xmlns="http://www.w3.org/2000/svg" viewBox="0 0 244.51 271.09">
  <defs>
    <style>
      .cls-1 {
        fill: #f2f2f2;
      }
    </style>
  </defs>
  <g id="Layer_1-2" data-name="Layer 1">
    <path class="cls-1" d="M238.18,168.24c-7.25-6.5-18.18-6.5-25.43,0l-47.81,43c-.33.3-.67.58-1.02.83,1.3-2.73,1.97-5.75,1.94-8.87-.08-9.69-7.02-17.8-16.15-19.74,5.03-7.64,9.31-17,12.61-27.61h31.02c-6.16,9.01-13.92,16.99-23.03,23.48-2.03,1.44-2.5,4.25-1.06,6.28.88,1.23,2.26,1.89,3.67,1.89.9,0,1.81-.27,2.61-.83,12.25-8.72,22.25-19.91,29.55-32.61.24-.31.44-.65.59-1.03,8.47-15.15,13.12-32.4,13.12-50.19s-4.72-35.16-12.98-49.96c-.13-.33-.31-.63-.51-.91C187.55,20.96,154.14,0,115.92,0S44.29,20.95,26.56,51.98c-.2.28-.38.59-.51.92-8.26,14.8-12.98,31.84-12.98,49.96,0,23.11,7.49,44.94,21.65,63.12,1.53,1.96,4.36,2.31,6.32.78,1.96-1.53,2.31-4.35.78-6.32-1.16-1.49-2.26-3.02-3.32-4.56h31.04c1.5,4.82,3.19,9.36,5.06,13.6-5.22-1.39-10.73-2.26-16.56-2.09-12.4.36-27.74,8.43-32.24,10.95H6.88c-3.79,0-6.88,3.09-6.88,6.88v64.89c0,3.79,3.09,6.88,6.88,6.88h38.42c1.02,0,2.03.11,3.02.33,2.5.56,61.61,13.77,85.39,13.77s44.99-12.31,56.51-23.83c4.93-4.93,18.72-19.57,32.06-33.73,6.13-6.5,12.11-12.86,17.01-18.02,3.57-3.76,5.41-8.69,5.2-13.87-.21-5.18-2.46-9.94-6.32-13.41ZM138.95,183.03h-18.1v-27.16h31.99c-3.65,10.91-8.39,20.19-13.9,27.16ZM76.35,146.87c-3.18-12.19-5-25.69-5.33-39.52h40.83v39.52h-35.5ZM22.18,98.35c.67-14.12,4.48-27.43,10.74-39.26h34.06c-2.97,12.25-4.64,25.64-4.95,39.26H22.18ZM76.28,59.09h35.57v39.26h-40.83c.32-13.72,2.12-27.13,5.26-39.26ZM209.66,98.35h-39.84c-.31-13.62-1.98-27.01-4.95-39.26h34.06c6.26,11.83,10.07,25.14,10.74,39.26ZM160.82,98.35h-39.97v-39.26h34.71c3.14,12.13,4.93,25.54,5.26,39.26ZM120.85,50.09V9.6c12.79,3.06,24.59,17.9,32.09,40.49h-32.09ZM111.85,9.41v40.68h-32.95c7.65-23.05,19.83-38.09,32.95-40.68ZM120.85,107.35h39.97c-.33,13.82-2.15,27.33-5.33,39.52h-34.64v-39.52ZM164.8,146.87c3.01-12.31,4.71-25.79,5.02-39.52h39.83c-.67,13.95-4.46,27.43-10.89,39.52h-33.97ZM193.5,50.09h-31.11c-4.93-15.98-11.81-28.67-19.97-37.27,21.02,6.2,38.99,19.57,51.07,37.27ZM89.45,12.81c-8.17,8.62-15.08,21.32-20,37.28h-31.11c12.09-17.71,30.07-31.09,51.11-37.28ZM22.19,107.35h39.84c.31,13.73,2.01,27.21,5.02,39.52h-34.04c-6.49-12.15-10.17-25.54-10.82-39.52ZM79,155.87h32.85v26.79c-5.93-.95-12.21-3.61-18.78-6.4-2.07-.88-4.19-1.77-6.37-2.65-2.93-5.24-5.51-11.19-7.7-17.75ZM232.76,189.32c-4.9,5.17-10.89,11.53-17.02,18.04-13.29,14.11-27.04,28.7-31.87,33.53-10.25,10.25-28.8,21.2-50.15,21.2-22.79,0-82.82-13.42-83.42-13.55-1.63-.37-3.31-.55-4.99-.55H9v-60.65h17.65c1.01,0,2.01-.27,2.89-.77,1.75-1.01,17.46-9.86,28.77-10.19,11.23-.31,21.41,4,31.25,8.17,9.07,3.85,17.64,7.48,26.66,7.48h29.28c6.21,0,11.3,5.05,11.35,11.25.03,3.05-1.14,5.92-3.29,8.08-2.15,2.16-5.01,3.36-8.06,3.36h-59.41c-2.49,0-4.5,2.01-4.5,4.5s2.01,4.5,4.5,4.5h69.76c5.58,0,10.95-2.06,15.1-5.79l47.81-43c3.82-3.43,9.59-3.43,13.41,0,2.04,1.83,3.22,4.34,3.33,7.07.11,2.73-.86,5.33-2.74,7.31Z"/>
  </g>
</svg>