<svg width="18" height="22" viewBox="0 0 18 22" fill="none" xmlns="http://www.w3.org/2000/svg">
<path d="M1 8.80206C1 14.2701 5.85086 18.7919 7.99797 20.5255C8.30526 20.7736 8.46074 20.8992 8.68999 20.9628C8.86851 21.0124 9.13124 21.0124 9.30976 20.9628C9.53944 20.8991 9.69384 20.7747 10.0023 20.5257C12.1494 18.792 17 14.2706 17 8.80256C17 6.73326 16.1572 4.74846 14.6569 3.28524C13.1566 1.82203 11.1219 1 9.00014 1C6.87839 1 4.84346 1.82215 3.34316 3.28537C1.84286 4.74859 1 6.73276 1 8.80206Z" stroke="#EEEEEE" stroke-width="1.5" stroke-linecap="round" stroke-linejoin="round"/>
<path d="M6.71432 7.762C6.71432 9.00685 7.73767 10.016 9.00005 10.016C10.2624 10.016 11.2858 9.00685 11.2858 7.762C11.2858 6.51715 10.2624 5.508 9.00005 5.508C7.73767 5.508 6.71432 6.51715 6.71432 7.762Z" stroke="#EEEEEE" stroke-width="1.5" stroke-linecap="round" stroke-linejoin="round"/>
</svg>
