<?xml version="1.0" encoding="UTF-8"?>
<svg id="Layer_2" data-name="Layer 2" xmlns="http://www.w3.org/2000/svg" viewBox="0 0 210.39 163.87">
  <defs>
    <style>
      .cls-1 {
        fill: #f2f2f2;
      }
    </style>
  </defs>
  <g id="Layer_1-2" data-name="Layer 1">
    <g>
      <path class="cls-1" d="M54.83,130.44c-25.7-1.43-45.83-22.73-45.83-48.5,0-12.98,5.05-25.18,14.22-34.36,8.47-8.47,19.69-13.49,31.63-14.15.9-.05,1.81-.08,2.73-.08h63.62l-16.67,16.67c-1.76,1.76-1.76,4.61,0,6.36.88.88,2.03,1.32,3.18,1.32s2.3-.44,3.18-1.32l24.35-24.35s.01-.02.02-.03c.2-.2.38-.42.54-.66.08-.12.13-.24.2-.36.07-.14.16-.27.22-.41.06-.15.1-.31.15-.47.04-.12.08-.24.11-.37.12-.58.12-1.18,0-1.76-.03-.13-.07-.25-.11-.37-.05-.16-.08-.32-.15-.47-.06-.15-.14-.28-.22-.41-.07-.12-.12-.25-.2-.36-.16-.24-.34-.46-.54-.66,0,0-.01-.02-.02-.03L110.89,1.32c-1.76-1.76-4.61-1.76-6.36,0-1.76,1.76-1.76,4.61,0,6.36l16.67,16.67h-63.62c-1.09,0-2.19.03-3.25.1-14.13.78-27.44,6.73-37.48,16.77C5.99,52.1,0,66.56,0,81.94c0,30.54,23.86,55.79,54.33,57.48.08,0,.17,0,.25,0,2.37,0,4.36-1.85,4.49-4.25.14-2.48-1.76-4.6-4.24-4.74Z"/>
      <path class="cls-1" d="M156.05,24.45c-2.49-.15-4.6,1.76-4.74,4.24-.14,2.48,1.76,4.6,4.24,4.74,25.7,1.43,45.84,22.73,45.84,48.51,0,12.98-5.05,25.18-14.23,34.35-8.47,8.47-19.69,13.49-31.63,14.15-.9.05-1.82.08-2.73.08h-63.62l16.67-16.67c1.76-1.76,1.76-4.61,0-6.36-1.76-1.76-4.61-1.76-6.36,0l-24.35,24.35s-.01.02-.02.03c-.2.2-.38.42-.54.66-.08.11-.13.24-.19.36-.07.14-.16.27-.22.42-.06.15-.1.31-.15.47-.04.12-.08.24-.11.37-.12.58-.12,1.18,0,1.76.03.13.07.25.11.37.05.16.08.32.15.47.06.15.14.28.22.42.07.12.12.24.19.36.16.24.34.46.54.66,0,0,.01.02.02.03l24.35,24.35c.88.88,2.03,1.32,3.18,1.32s2.3-.44,3.18-1.32c1.76-1.76,1.76-4.61,0-6.36l-16.67-16.67h63.62c1.09,0,2.19-.03,3.25-.1,14.13-.78,27.44-6.73,37.47-16.77,10.88-10.87,16.87-25.33,16.87-40.71,0-30.55-23.87-55.8-54.34-57.49Z"/>
    </g>
  </g>
</svg>