<svg width="34" height="34" viewBox="0 0 34 34" fill="none" xmlns="http://www.w3.org/2000/svg">
<path d="M13.398 20.7025C13.197 21.565 14.1336 22.2439 14.8907 21.7844L16.4812 20.8192C16.8 20.6258 17.2 20.6258 17.5188 20.8192L19.1093 21.7844C19.8664 22.2439 20.803 21.565 20.602 20.7025L20.1813 18.8978C20.097 18.5362 20.2201 18.1576 20.5008 17.9146L21.9208 16.6858C22.5915 16.1054 22.2306 15.0039 21.3464 14.9329L19.4821 14.7832C19.1098 14.7533 18.7852 14.5184 18.6404 14.1741L17.9218 12.4657C17.5784 11.6494 16.4216 11.6494 16.0782 12.4657L15.3596 14.1741C15.2148 14.5184 14.8902 14.7533 14.5179 14.7832L12.6536 14.9329C11.7694 15.0039 11.4085 16.1054 12.0792 16.6858L13.4992 17.9146C13.78 18.1576 13.903 18.5362 13.8187 18.8978L13.398 20.7025ZM17.7018 32.3087C17.3125 32.6922 16.6875 32.6922 16.2982 32.3087L12.5486 28.615C12.3615 28.4307 12.1094 28.3274 11.8468 28.3274H6.67257C6.12028 28.3274 5.67257 27.8797 5.67257 27.3274V22.1532C5.67257 21.8906 5.56926 21.6385 5.38497 21.4514L1.6913 17.7018C1.30783 17.3125 1.30783 16.6875 1.6913 16.2982L5.38497 12.5486C5.56926 12.3615 5.67257 12.1094 5.67257 11.8468V6.67257C5.67257 6.12028 6.12028 5.67257 6.67257 5.67257H11.8468C12.1094 5.67257 12.3615 5.56926 12.5486 5.38497L16.2982 1.6913C16.6875 1.30783 17.3125 1.30783 17.7018 1.6913L21.4514 5.38497C21.6385 5.56926 21.8906 5.67257 22.1532 5.67257H27.3274C27.8797 5.67257 28.3274 6.12028 28.3274 6.67257V11.8468C28.3274 12.1094 28.4307 12.3615 28.615 12.5486L32.3087 16.2982C32.6922 16.6875 32.6922 17.3125 32.3087 17.7018L28.615 21.4514C28.4307 21.6385 28.3274 21.8906 28.3274 22.1532V27.3274C28.3274 27.8797 27.8797 28.3274 27.3274 28.3274H22.1532C21.8906 28.3274 21.6385 28.4307 21.4514 28.615L17.7018 32.3087Z" stroke="#EEEEEE" stroke-width="2"/>
</svg>
