<svg width="866" height="43" viewBox="0 0 866 43" fill="none" xmlns="http://www.w3.org/2000/svg">
<mask id="path-1-inside-1_92_221" fill="white">
<path d="M866 0L0 -7.57081e-05L-3.75919e-06 43L866 43.0001L866 0Z"/>
</mask>
<g clip-path="url(#paint0_diamond_92_221_clip_path)" data-figma-skip-parse="true"><g transform="matrix(-0.38 -3.32207e-08 -3.32672e-09 0.0380533 433 -3.78541e-05)"><rect x="0" y="0" width="1142.11" height="1156.28" fill="url(#paint0_diamond_92_221)" opacity="1" shape-rendering="crispEdges"/><rect x="0" y="0" width="1142.11" height="1156.28" transform="scale(1 -1)" fill="url(#paint0_diamond_92_221)" opacity="1" shape-rendering="crispEdges"/><rect x="0" y="0" width="1142.11" height="1156.28" transform="scale(-1 1)" fill="url(#paint0_diamond_92_221)" opacity="1" shape-rendering="crispEdges"/><rect x="0" y="0" width="1142.11" height="1156.28" transform="scale(-1)" fill="url(#paint0_diamond_92_221)" opacity="1" shape-rendering="crispEdges"/></g></g><path d="M866 0L0 -7.57081e-05L-3.75919e-06 43L866 43.0001L866 0Z" data-figma-gradient-fill="{&#34;type&#34;:&#34;GRADIENT_DIAMOND&#34;,&#34;stops&#34;:[{&#34;color&#34;:{&#34;r&#34;:0.0039215688593685627,&#34;g&#34;:0.33725491166114807,&#34;b&#34;:0.99607843160629272,&#34;a&#34;:1.0},&#34;position&#34;:0.0},{&#34;color&#34;:{&#34;r&#34;:0.047058824449777603,&#34;g&#34;:0.047058824449777603,&#34;b&#34;:0.047058824449777603,&#34;a&#34;:0.0},&#34;position&#34;:1.0}],&#34;stopsVar&#34;:[{&#34;color&#34;:{&#34;r&#34;:0.0039215688593685627,&#34;g&#34;:0.33725491166114807,&#34;b&#34;:0.99607843160629272,&#34;a&#34;:1.0},&#34;position&#34;:0.0},{&#34;color&#34;:{&#34;r&#34;:0.047058824449777603,&#34;g&#34;:0.047058824449777603,&#34;b&#34;:0.047058824449777603,&#34;a&#34;:0.0},&#34;position&#34;:1.0}],&#34;transform&#34;:{&#34;m00&#34;:-760.0,&#34;m01&#34;:-6.6534416873764712e-06,&#34;m02&#34;:813.00006103515625,&#34;m10&#34;:-6.6441309172660112e-05,&#34;m11&#34;:76.106506347656250,&#34;m12&#34;:-38.053256988525391},&#34;opacity&#34;:1.0,&#34;blendMode&#34;:&#34;NORMAL&#34;,&#34;visible&#34;:true}"/>
<g clip-path="url(#paint1_diamond_92_221_clip_path)" data-figma-skip-parse="true" mask="url(#path-1-inside-1_92_221)"><g transform="matrix(-0.433 -3.77551e-08 -1.65289e-09 0.0215 433 -3.77551e-05)"><rect x="0" y="0" width="1002.31" height="2046.51" fill="url(#paint1_diamond_92_221)" opacity="1" shape-rendering="crispEdges"/><rect x="0" y="0" width="1002.31" height="2046.51" transform="scale(1 -1)" fill="url(#paint1_diamond_92_221)" opacity="1" shape-rendering="crispEdges"/><rect x="0" y="0" width="1002.31" height="2046.51" transform="scale(-1 1)" fill="url(#paint1_diamond_92_221)" opacity="1" shape-rendering="crispEdges"/><rect x="0" y="0" width="1002.31" height="2046.51" transform="scale(-1)" fill="url(#paint1_diamond_92_221)" opacity="1" shape-rendering="crispEdges"/></g></g><path d="M866 0L866 -1L867 -1L867 8.74228e-08L866 0ZM0 -7.57081e-05L-1 -7.57955e-05L-1 -1.00008L8.74228e-08 -1.00008L0 -7.57081e-05ZM-3.75919e-06 43L-3.84661e-06 44L-1 44L-1 43L-3.75919e-06 43ZM866 43.0001L867 43.0001L867 44.0001L866 44.0001L866 43.0001ZM866 0L866 1L-8.74228e-08 0.999924L0 -7.57081e-05L8.74228e-08 -1.00008L866 -1L866 0ZM0 -7.57081e-05L1 -7.56207e-05L0.999996 43L-3.75919e-06 43L-1 43L-1 -7.57955e-05L0 -7.57081e-05ZM-3.75919e-06 43L-3.67176e-06 42L866 42.0001L866 43.0001L866 44.0001L-3.84661e-06 44L-3.75919e-06 43ZM866 43.0001L865 43.0001L865 -8.74228e-08L866 0L867 8.74228e-08L867 43.0001L866 43.0001Z" data-figma-gradient-fill="{&#34;type&#34;:&#34;GRADIENT_DIAMOND&#34;,&#34;stops&#34;:[{&#34;color&#34;:{&#34;r&#34;:0.93333333730697632,&#34;g&#34;:0.93333333730697632,&#34;b&#34;:0.93333333730697632,&#34;a&#34;:1.0},&#34;position&#34;:0.0},{&#34;color&#34;:{&#34;r&#34;:0.047058824449777603,&#34;g&#34;:0.047058824449777603,&#34;b&#34;:0.047058824449777603,&#34;a&#34;:0.0},&#34;position&#34;:1.0}],&#34;stopsVar&#34;:[{&#34;color&#34;:{&#34;r&#34;:0.93333333730697632,&#34;g&#34;:0.93333333730697632,&#34;b&#34;:0.93333333730697632,&#34;a&#34;:1.0},&#34;position&#34;:0.0},{&#34;color&#34;:{&#34;r&#34;:0.047058824449777603,&#34;g&#34;:0.047058824449777603,&#34;b&#34;:0.047058824449777603,&#34;a&#34;:0.0},&#34;position&#34;:1.0}],&#34;transform&#34;:{&#34;m00&#34;:-865.99987792968750,&#34;m01&#34;:-3.3057876862585545e-06,&#34;m02&#34;:866.0,&#34;m10&#34;:-7.5510113674681634e-05,&#34;m11&#34;:43.000072479248047,&#34;m12&#34;:-21.500036239624023},&#34;opacity&#34;:1.0,&#34;blendMode&#34;:&#34;NORMAL&#34;,&#34;visible&#34;:true}" mask="url(#path-1-inside-1_92_221)"/>
<defs>
<clipPath id="paint0_diamond_92_221_clip_path"><path d="M866 0L0 -7.57081e-05L-3.75919e-06 43L866 43.0001L866 0Z"/></clipPath><clipPath id="paint1_diamond_92_221_clip_path"><path d="M866 0L866 -1L867 -1L867 8.74228e-08L866 0ZM0 -7.57081e-05L-1 -7.57955e-05L-1 -1.00008L8.74228e-08 -1.00008L0 -7.57081e-05ZM-3.75919e-06 43L-3.84661e-06 44L-1 44L-1 43L-3.75919e-06 43ZM866 43.0001L867 43.0001L867 44.0001L866 44.0001L866 43.0001ZM866 0L866 1L-8.74228e-08 0.999924L0 -7.57081e-05L8.74228e-08 -1.00008L866 -1L866 0ZM0 -7.57081e-05L1 -7.56207e-05L0.999996 43L-3.75919e-06 43L-1 43L-1 -7.57955e-05L0 -7.57081e-05ZM-3.75919e-06 43L-3.67176e-06 42L866 42.0001L866 43.0001L866 44.0001L-3.84661e-06 44L-3.75919e-06 43ZM866 43.0001L865 43.0001L865 -8.74228e-08L866 0L867 8.74228e-08L867 43.0001L866 43.0001Z" mask="url(#path-1-inside-1_92_221)"/></clipPath><linearGradient id="paint0_diamond_92_221" x1="0" y1="0" x2="500" y2="500" gradientUnits="userSpaceOnUse">
<stop stop-color="#0156FE"/>
<stop offset="1" stop-color="#0C0C0C" stop-opacity="0"/>
</linearGradient>
<linearGradient id="paint1_diamond_92_221" x1="0" y1="0" x2="500" y2="500" gradientUnits="userSpaceOnUse">
<stop stop-color="#EEEEEE"/>
<stop offset="1" stop-color="#0C0C0C" stop-opacity="0"/>
</linearGradient>
</defs>
</svg>
