<!DOCTYPE svg PUBLIC "-//W3C//DTD SVG 1.1//EN" "http://www.w3.org/Graphics/SVG/1.1/DTD/svg11.dtd">
<!-- Uploaded to: SVG Repo, www.svgrepo.com, Transformed by: SVG Repo Mixer Tools -->
<svg version="1.1" id="Icons" xmlns="http://www.w3.org/2000/svg" xmlns:xlink="http://www.w3.org/1999/xlink" viewBox="0 0 32.00 32.00" xml:space="preserve" width="256px" height="256px" fill="#ffffff">
<g id="SVGRepo_bgCarrier" stroke-width="0"/>
<g id="SVGRepo_tracerCarrier" stroke-linecap="round" stroke-linejoin="round"/>
<g id="SVGRepo_iconCarrier"> <style type="text/css"> .st0{fill:none;stroke:#FFFFFF80;stroke-width:0.96;stroke-linecap:round;stroke-linejoin:round;stroke-miterlimit:10;} .st1{fill:none;stroke:#FFFFFF80;stroke-width:0.96;} .st2{fill:none;stroke:#FFFFFF80;stroke-width:0.96;stroke-miterlimit:10;} </style> <path class="st0" d="M23,31H9c-4.4,0-8-3.6-8-8V9c0-4.4,3.6-8,8-8h14c4.4,0,8,3.6,8,8v14C31,27.4,27.4,31,23,31z"/> <path class="st0" d="M26,16h-5v-2.8c0-0.7,0.5-1.2,1.2-1.2H25V7h-4h0c-2.8,0-5,2.2-5,5v0v4h-4v5h4v10h5V21h3L26,16z"/> </g>
</svg>